<?xml version="1.0" encoding="utf-8"?>
<!-- Generator: Adobe Illustrator 28.2.0, SVG Export Plug-In . SVG Version: 6.00 Build 0)  -->
<svg version="1.1" id="Layer_1" xmlns="http://www.w3.org/2000/svg" xmlns:xlink="http://www.w3.org/1999/xlink" x="0px" y="0px"
	 viewBox="0 0 118 135" style="enable-background:new 0 0 118 135;" xml:space="preserve">
<style type="text/css">
	.st0{fill:#2B388F;}
	.st1{fill:#F05E63;}
	.st2{fill:#FFD007;}
	.st3{fill:#50A6DC;}
</style>
<g>
	<path class="st0" d="M70.95,91.04c-0.02,3.56-0.17,7.12,0,10.67c0.12,2.39-0.67,4.02-2.63,5.33c-2.7,1.8-5.31,3.76-7.95,5.66
		c-1.05,0.76-2.15,0.72-3.2,0.1c-4.39-2.6-8.62-5.44-12.51-8.74c-7.99-6.76-14.73-14.62-20.3-23.47c-4.51-7.16-7.65-14.9-9.61-23.13
		c-0.79-3.31-1.36-6.66-1.7-10.05c-0.32-3.13-0.22-6.26-0.3-9.39c-0.04-1.41,0.57-2.3,1.74-3.01c6.13-3.73,12.59-6.69,19.47-8.77
		c4.94-1.49,9.98-2.42,15.09-3.08c6.59-0.85,13.2-0.97,19.83-0.71c1.3,0.05,2.01,0.67,2.02,1.91c0.02,5.08-0.01,10.17-0.02,15.25
		c0,0.06-0.04,0.12-0.06,0.18l0.01-0.01c-5.3-0.01-10.61-0.02-15.91-0.03c-1.8,0-2.18,0.36-2.18,2.16
		c-0.01,4.57-0.02,9.15,0.02,13.72c0.01,0.76-0.2,0.93-0.94,0.93c-5.11-0.03-10.23-0.02-15.34-0.02c-1.41,0-1.87,0.46-1.87,1.88
		c0,4.54,0,9.08,0,13.63c0,1.51,0.41,1.92,1.91,1.92c5.02,0,10.04,0.02,15.05-0.02c0.91-0.01,1.22,0.14,1.2,1.16
		c-0.07,4.73-0.04,9.46-0.03,14.2c0,1.35,0.49,1.83,1.83,1.84c2.99,0.01,5.97,0,8.96-0.01c2.44-0.01,4.89-0.04,7.33-0.06l0.04-0.04
		L70.95,91.04z"/>
	<path class="st1" d="M87.59,74.1c-0.01,5.05-0.06,10.1-0.02,15.14c0.01,1.39-0.63,1.82-1.77,1.81c-4.95-0.05-9.91-0.02-14.86-0.02
		c0,0-0.05-0.03-0.05-0.03l-0.04,0.04c0.01-0.28,0.03-0.57,0.03-0.85c0-5.11,0-10.22,0-15.33c0-0.46-0.07-0.82,0.64-0.81
		c5.36,0.05,10.73,0.05,16.09,0.06L87.59,74.1z"/>
	<path class="st0" d="M70.82,39.79c5.36-0.01,10.73,0,16.09-0.05c0.77-0.01,0.7,0.38,0.7,0.87c-0.01,4.79,0,9.59,0,14.38
		c0,0.48,0.02,0.95,0.04,1.43c0,0.05-0.01,0.08-0.05,0.11c-5.26,0-10.53-0.03-15.79,0.01c-0.78,0.01-0.99-0.18-0.99-0.98
		c0.03-5.26,0.01-10.53,0.01-15.79L70.82,39.79z"/>
	<path class="st2" d="M87.59,56.53c0.03-0.03,0.05-0.07,0.05-0.11c5.01-0.01,10.03,0,15.04-0.04c0.66-0.01,0.77,0.22,0.76,0.8
		c-0.02,5.33-0.02,10.66,0,15.99c0,0.66-0.16,0.85-0.83,0.84c-4.57-0.03-9.14-0.02-13.71-0.01c-0.44,0-0.89-0.09-1.31,0.09
		c0,0,0.02,0.01,0.02,0.01C87.61,68.25,87.6,62.39,87.59,56.53z"/>
	<path class="st2" d="M99.95,36.03c1.59,0,3.18,0.02,4.76-0.01c0.51-0.01,0.64,0.14,0.64,0.63c-0.02,3.11-0.02,6.22,0,9.34
		c0,0.5-0.14,0.63-0.64,0.63c-3.18-0.02-6.35-0.02-9.53,0c-0.49,0-0.66-0.13-0.66-0.64c0.02-3.11,0.02-6.22-0.01-9.34
		c-0.01-0.56,0.23-0.61,0.68-0.6C96.77,36.05,98.36,36.04,99.95,36.03C99.95,36.04,99.95,36.03,99.95,36.03z"/>
	<path class="st1" d="M98.13,87.97c-0.98,0-1.97-0.03-2.95,0.01c-0.47,0.02-0.6-0.14-0.59-0.59c0.02-2,0.01-4-0.01-6
		c-0.01-0.46,0.14-0.59,0.6-0.59c2.03,0.02,4.06,0.02,6.09,0c0.44,0,0.6,0.11,0.6,0.58c-0.02,2-0.02,4,0,6
		c0.01,0.46-0.14,0.6-0.59,0.59C100.23,87.95,99.18,87.97,98.13,87.97C98.13,87.97,98.13,87.97,98.13,87.97z"/>
	<path class="st3" d="M90.75,29.7c-0.98,0-1.97-0.03-2.95,0.01c-0.53,0.02-0.62-0.17-0.62-0.65c0.02-1.94,0.03-3.87-0.01-5.81
		c-0.01-0.51,0.14-0.65,0.63-0.64c1.97,0.03,3.94,0.02,5.91,0c0.47-0.01,0.59,0.16,0.59,0.6c-0.02,1.97-0.02,3.94,0,5.91
		c0,0.45-0.13,0.6-0.59,0.58C92.72,29.67,91.73,29.69,90.75,29.7C90.75,29.69,90.75,29.69,90.75,29.7z"/>
</g>
</svg>
