<?xml version="1.0" encoding="utf-8"?>
<!-- Generator: Adobe Illustrator 28.2.0, SVG Export Plug-In . SVG Version: 6.00 Build 0)  -->
<svg version="1.1" id="Layer_1" xmlns="http://www.w3.org/2000/svg" xmlns:xlink="http://www.w3.org/1999/xlink" x="0px" y="0px"
	 viewBox="0 0 622 135" style="enable-background:new 0 0 622 135;" xml:space="preserve">
<style type="text/css">
	.st0{fill:#2B388F;}
	.st1{fill:#F05E63;}
	.st2{fill:#FFD007;}
	.st3{fill:#50A6DC;}
	.st4{fill:#A6A8AB;}
</style>
<g>
	<g>
		<path class="st0" d="M148.24,77.8c-14.98,0-27.23-11.25-27.23-27.23c0-15.89,12.24-27.15,27.23-27.15
			c15.13,0,27.15,11.26,27.15,27.15C175.39,66.55,163.3,77.8,148.24,77.8z M148.24,68.3c9.58,0,16.2-6.92,16.2-17.72
			s-6.62-17.57-16.2-17.57c-9.66,0-16.27,6.77-16.27,17.57S138.58,68.3,148.24,68.3z"/>
		<path class="st0" d="M223.07,77.27h-10.72v-5.32c-2.66,3.57-7.3,5.86-12.55,5.86c-9.81,0-16.88-6.39-16.88-17.95V35.14h10.65v23.2
			c0,6.77,3.73,10.42,9.35,10.42c5.78,0,9.43-3.65,9.43-10.42v-23.2h10.72V77.27z"/>
		<path class="st0" d="M249.69,77.95c-10.57,0-17.95-6.16-18.4-13.99h10.72c0.38,3.19,3.35,5.63,7.6,5.63c4.18,0,6.46-1.9,6.46-4.33
			c0-7.53-23.8-2.74-23.8-18.18c0-7,6.24-12.62,16.65-12.62c10.19,0,16.35,5.55,16.96,13.92H255.7c-0.3-3.27-2.89-5.48-7.07-5.48
			c-3.95,0-6.01,1.6-6.01,4.03c0,7.68,23.35,2.89,23.65,18.33C266.27,72.48,259.96,77.95,249.69,77.95z"/>
		<path class="st0" d="M291.51,34.45c6.77,0,11.41,3.19,13.92,6.69v-6.01h10.72v42.13h-10.72v-6.16c-2.51,3.65-7.3,6.84-13.99,6.84
			c-10.65,0-19.16-8.75-19.16-21.9C272.27,42.89,280.79,34.45,291.51,34.45z M294.25,43.81c-5.7,0-11.1,4.26-11.1,12.24
			s5.4,12.55,11.1,12.55c5.86,0,11.18-4.41,11.18-12.4S300.11,43.81,294.25,43.81z"/>
		<path class="st0" d="M343.15,34.45c5.55,0,10.88,2.59,13.76,6.54v-20h10.8v56.28h-10.8v-6.24c-2.51,3.88-7.22,6.92-13.84,6.92
			c-10.72,0-19.24-8.75-19.24-21.9C323.83,42.89,332.35,34.45,343.15,34.45z M345.81,43.81c-5.7,0-11.1,4.26-11.1,12.24
			s5.4,12.55,11.1,12.55c5.86,0,11.18-4.41,11.18-12.4S351.67,43.81,345.81,43.81z"/>
	</g>
</g>
<g>
	<path class="st0" d="M73.26,73.46c-0.02,3.56-0.17,7.12,0,10.67c0.12,2.39-0.67,4.02-2.63,5.33c-2.7,1.8-5.31,3.76-7.95,5.66
		c-1.05,0.76-2.15,0.72-3.2,0.1c-4.39-2.6-8.62-5.44-12.51-8.74C38.98,79.71,32.24,71.85,26.67,63c-4.51-7.16-7.65-14.9-9.61-23.13
		c-0.79-3.31-1.36-6.66-1.7-10.05c-0.32-3.13-0.22-6.26-0.3-9.39c-0.04-1.41,0.57-2.3,1.74-3.01c6.13-3.73,12.59-6.69,19.47-8.77
		c4.94-1.49,9.98-2.42,15.09-3.08c6.59-0.85,13.2-0.97,19.83-0.71c1.3,0.05,2.01,0.67,2.02,1.91c0.02,5.08-0.01,10.17-0.02,15.25
		c0,0.06-0.04,0.12-0.06,0.18l0.01-0.01c-5.3-0.01-10.61-0.02-15.91-0.03c-1.8,0-2.18,0.36-2.18,2.16
		c-0.01,4.57-0.02,9.15,0.02,13.72c0.01,0.76-0.2,0.93-0.94,0.93c-5.11-0.03-10.23-0.02-15.34-0.02c-1.41,0-1.87,0.46-1.87,1.88
		c0,4.54,0,9.08,0,13.63c0,1.51,0.41,1.92,1.91,1.92c5.02,0,10.04,0.02,15.05-0.02c0.91-0.01,1.22,0.14,1.2,1.16
		c-0.07,4.73-0.04,9.46-0.03,14.2c0,1.35,0.49,1.83,1.83,1.84c2.99,0.01,5.97,0,8.96-0.01c2.44-0.01,4.89-0.04,7.33-0.06l0.04-0.04
		L73.26,73.46z"/>
	<path class="st1" d="M89.9,56.52c-0.01,5.05-0.06,10.1-0.02,15.14c0.01,1.39-0.63,1.82-1.77,1.81c-4.95-0.05-9.91-0.02-14.86-0.02
		c0,0-0.05-0.03-0.05-0.03l-0.04,0.04c0.01-0.28,0.03-0.57,0.03-0.85c0-5.11,0-10.22,0-15.33c0-0.46-0.07-0.82,0.64-0.81
		c5.36,0.05,10.73,0.05,16.09,0.06L89.9,56.52z"/>
	<path class="st0" d="M73.13,22.21c5.36-0.01,10.73,0,16.09-0.05c0.77-0.01,0.7,0.38,0.7,0.87c-0.01,4.79,0,9.59,0,14.38
		c0,0.48,0.02,0.95,0.04,1.43c0,0.05-0.01,0.08-0.05,0.11c-5.26,0-10.53-0.03-15.79,0.01c-0.78,0.01-0.99-0.18-0.99-0.98
		c0.03-5.26,0.01-10.53,0.01-15.79L73.13,22.21z"/>
	<path class="st2" d="M89.9,38.95c0.03-0.03,0.05-0.07,0.05-0.11c5.01-0.01,10.03,0,15.04-0.04c0.66-0.01,0.77,0.22,0.76,0.8
		c-0.02,5.33-0.02,10.66,0,15.99c0,0.66-0.16,0.85-0.83,0.84c-4.57-0.03-9.14-0.02-13.71-0.01c-0.44,0-0.89-0.09-1.31,0.09
		c0,0,0.02,0.01,0.02,0.01C89.92,50.68,89.91,44.81,89.9,38.95z"/>
	<path class="st2" d="M102.26,18.45c1.59,0,3.18,0.02,4.76-0.01c0.51-0.01,0.64,0.14,0.64,0.63c-0.02,3.11-0.02,6.22,0,9.34
		c0,0.5-0.14,0.63-0.64,0.63c-3.18-0.02-6.35-0.02-9.53,0c-0.49,0-0.66-0.13-0.66-0.64c0.02-3.11,0.02-6.22-0.01-9.34
		c-0.01-0.56,0.23-0.61,0.68-0.6C99.08,18.47,100.67,18.46,102.26,18.45C102.26,18.46,102.26,18.46,102.26,18.45z"/>
	<path class="st1" d="M100.44,70.4c-0.98,0-1.97-0.03-2.95,0.01c-0.47,0.02-0.6-0.14-0.59-0.59c0.02-2,0.01-4-0.01-6
		c-0.01-0.46,0.14-0.59,0.6-0.59c2.03,0.02,4.06,0.02,6.09,0c0.44,0,0.6,0.11,0.6,0.58c-0.02,2-0.02,4,0,6
		c0.01,0.46-0.14,0.6-0.59,0.59C102.54,70.37,101.49,70.39,100.44,70.4C100.44,70.4,100.44,70.4,100.44,70.4z"/>
	<path class="st3" d="M93.06,12.12c-0.98,0-1.97-0.03-2.95,0.01c-0.53,0.02-0.62-0.17-0.62-0.65c0.02-1.94,0.03-3.87-0.01-5.81
		c-0.01-0.51,0.14-0.65,0.63-0.64c1.97,0.03,3.94,0.02,5.91,0c0.47-0.01,0.59,0.16,0.59,0.6c-0.02,1.97-0.02,3.94,0,5.91
		c0,0.45-0.13,0.6-0.59,0.58C95.03,12.09,94.05,12.11,93.06,12.12C93.06,12.12,93.06,12.12,93.06,12.12z"/>
</g>
<g>
	<path class="st4" d="M459.1,113.71c1.29,1.45,1.94,3.14,1.94,5.08c0,2.3-1.15,4.1-3.45,5.4c-1.42,0.83-3.01,1.24-4.77,1.24
		c-5.38,0-9.68-3.75-12.89-11.26l2.26-2.99c1.25,2.98,2.46,5.24,3.66,6.79c1.89,2.38,4.03,3.57,6.42,3.57
		c3.29,0,4.94-1.07,4.94-3.22c0-1.45-0.74-2.6-2.22-3.45c-0.57-0.05-1.04,0.01-1.4,0.19c-0.21,0.1-0.6,0.41-1.17,0.93l-2.38-3.96
		c1.09-0.88,2.13-1.32,3.14-1.32c0.41,0,0.83,0.08,1.24,0.23c1.09-0.6,1.63-1.64,1.63-3.14c0-0.96-0.38-1.78-1.13-2.46
		c-0.75-0.68-1.6-1.03-2.56-1.03c-0.67,0-1.38,0.16-2.13,0.47c-0.96,0.39-1.44,0.88-1.44,1.47c0,0.29,0.13,0.43,0.39,0.43
		c0.21,0,0.58-0.05,1.13-0.16l1.4-0.97l-0.54,3.84c-0.57,0.26-1.19,0.39-1.86,0.39c-2.54,0-3.8-0.96-3.8-2.87
		c0-1.71,0.71-3.14,2.13-4.31c1.32-1.11,2.85-1.67,4.58-1.67c1.94,0,3.65,0.61,5.12,1.82c1.61,1.29,2.41,2.89,2.41,4.77
		c0,0.65-0.08,1.23-0.23,1.75c1.17-0.85,1.75-2.02,1.75-3.52c0-1.73-1.54-3.16-4.63-4.29c-0.83-0.29-2.31-0.81-4.46-1.56
		c-4.16-1.53-6.24-3.68-6.24-6.45c0-1.09,0.8-2.37,2.41-3.85l3.53,1.44c-1.63,1.19-2.45,2.08-2.45,2.68c0,0.85,0.74,1.57,2.21,2.13
		c0.91,0.31,2.68,0.93,5.32,1.86c5.3,1.89,7.96,4.7,7.96,8.42c0,1.73-0.54,3.33-1.63,4.77C462.14,112.44,460.75,113.37,459.1,113.71
		z"/>
	<path class="st4" d="M487.08,104.39v20.76h-3.49c-3.49-2.82-8.82-5.03-15.99-6.64l-1.09-3.84l8.73-3.76
		c-0.78-1.14-2.07-2.04-3.88-2.72c-1.53-0.57-3.12-0.88-4.77-0.93v-2.87h-2.25v-3.49h25.15v3.49H487.08z M483.24,104.39h-10.4
		c3.46,1.89,5.61,3.58,6.47,5.08c1.58,0.05,2.9,0.53,3.93,1.44V104.39z M483.24,115.72c-0.88-1.5-2.22-2.28-4.01-2.33l-5.3,2.56
		c2.18,0.83,3.78,1.47,4.79,1.94c1.74,0.8,3.25,1.64,4.52,2.52V115.72z"/>
	<path class="st4" d="M508.86,104.39v20.8h-3.38c-1.24-2.02-3.48-3.96-6.71-5.8c-3.03-1.74-5.82-2.8-8.38-3.19l-1.13-3.97
		c1.16-0.68,2.99-1.73,5.47-3.15c-2.48-0.73-3.73-2.02-3.73-3.89c0-2.86,1.99-4.28,5.98-4.28c0.75,0,2.06,0.45,3.92,1.34l-2.13,3.12
		c-1.19-0.57-1.99-0.85-2.41-0.85c-0.85,0-1.28,0.24-1.28,0.72c0,1.04,1.34,1.57,4.03,1.57c0.91,0,1.92-0.22,3.01-0.66
		c0.73-0.28,1.7-0.69,2.89-1.2v-4.04h6.37v3.49H508.86z M505.01,109.05c-3.34,1.24-6.56,2.7-9.66,4.39
		c3.83,1.63,7.05,3.58,9.66,5.86V109.05z"/>
	<path class="st4" d="M532.03,104.39v20.8h-3.38c-1.35-2.16-3.77-4.18-7.28-6.08c-3.51-1.9-6.57-2.9-9.18-3l-1.09-4.01
		c1.64-1.22,4.43-2.66,8.38-4.32c1.48-0.62,4.38-1.75,8.7-3.39h-18.86v-3.49h25.54v3.49H532.03z M528.19,108.78
		c-2.48,0.88-5.98,2.38-10.48,4.5c3.98,1.58,7.48,3.6,10.48,6.06V108.78z"/>
	<path class="st4" d="M539.95,104.39v20.76h-3.84v-20.76h-3.42v-3.49h10.36v3.49H539.95z"/>
	<path class="st4" d="M548.93,118.36c2.01,1.01,3.3,1.51,3.87,1.51c1.47,0,2.68-0.36,3.64-1.09c1.06-0.8,1.59-1.91,1.59-3.34
		c0-0.47-0.09-0.89-0.27-1.28c-1.26,1.17-2.62,1.75-4.06,1.75c-1.6,0-2.83-0.53-3.69-1.59c-0.86-1.06-1.29-2.41-1.29-4.04
		c0-1.84,0.75-3.8,2.25-5.9h-9.94v-3.49h30v3.49h-11.06c0.88,1.94,2.64,2.91,5.28,2.91c0.47,0,0.94-0.03,1.44-0.08l2.45,3.03
		c-1.66,3.39-2.48,5.85-2.48,7.38c0,3.36,0.52,5.77,1.55,7.22l-2.87,1.55c-1.53-2.25-2.29-4.66-2.29-7.22
		c0-1.99,0.52-4.72,1.55-8.19c-1.92-0.31-3.65-0.98-5.18-2.02c-1.74-1.17-2.89-2.59-3.47-4.27c-2.26,1.79-3.39,3.69-3.39,5.71
		c0,1.16,0.44,1.75,1.32,1.75c1.51,0,2.64-0.7,3.39-2.1h3.43c0.78,1.17,1.17,2.85,1.17,5.05c0,5.67-2.96,8.5-8.89,8.5
		c-1.11,0-2.25-0.28-3.42-0.85c-0.39-0.18-1.41-0.78-3.07-1.79c-0.93-1.55-2.2-3.96-3.8-7.22l2.48-2.37
		C545.98,113.73,547.23,116.06,548.93,118.36z"/>
	<path class="st4" d="M576.2,104.39v20.76h-3.84v-20.76h-3.42v-3.49h10.36v3.49H576.2z"/>
	<path class="st4" d="M599.64,104.39v20.8h-3.42c-1.29-2.13-3.66-4.12-7.1-5.98c-3.44-1.86-6.44-2.82-9-2.9l-1.05-4.05
		c4.22-2.73,9.75-5.35,16.61-7.87h-18.4v-3.49h24.76v3.49H599.64z M589.36,126.17c-1.09-1.11-2.65-2.17-4.7-3.18l1.67-3.18
		c2.02,0.85,3.83,2.15,5.43,3.88L589.36,126.17z M595.8,108.78c-3.6,1.29-6.99,2.85-10.17,4.66c3.67,1.35,7.06,3.31,10.17,5.9
		V108.78z"/>
</g>
<g>
	<path class="st0" d="M422.67,77.95h-22.89V24.87h21.9c11.1,0,17.26,5.78,17.26,13.69c0,6.46-3.88,10.49-9.05,12.17
		c6.01,1.06,10.27,6.62,10.27,12.85C440.16,72.02,433.69,77.95,422.67,77.95z M420.16,33.46h-9.73v13.31h9.73
		c5.02,0,7.91-2.28,7.91-6.62C428.07,35.9,425.18,33.46,420.16,33.46z M420.92,54.99h-10.5v14.3h10.72c5.17,0,8.21-2.51,8.21-7
		C429.36,57.72,426.09,54.99,420.92,54.99z"/>
	<path class="st0" d="M465.18,35.14c6.77,0,11.41,3.19,13.92,6.69v-6.01h10.72v42.13h-10.72v-6.16c-2.51,3.65-7.3,6.84-13.99,6.84
		c-10.65,0-19.16-8.75-19.16-21.9S454.45,35.14,465.18,35.14z M467.91,44.49c-5.7,0-11.1,4.26-11.1,12.24s5.4,12.55,11.1,12.55
		c5.86,0,11.18-4.41,11.18-12.4C479.09,48.9,473.77,44.49,467.91,44.49z"/>
	<path class="st0" d="M528.52,44.42l-18.56,24.79h18.78v8.75h-30.88v-8.59l18.4-24.79h-18.33v-8.75h30.57V44.42z"/>
	<path class="st0" d="M553.46,35.14c6.77,0,11.41,3.19,13.92,6.69v-6.01h10.72v42.13h-10.72v-6.16c-2.51,3.65-7.3,6.84-13.99,6.84
		c-10.65,0-19.16-8.75-19.16-21.9S542.74,35.14,553.46,35.14z M556.2,44.49c-5.7,0-11.1,4.26-11.1,12.24s5.4,12.55,11.1,12.55
		c5.86,0,11.18-4.41,11.18-12.4C567.38,48.9,562.06,44.49,556.2,44.49z"/>
	<path class="st0" d="M599.17,77.95h-10.65V35.82h10.65v6.54c2.66-4.33,7.07-7.15,12.93-7.15v11.18h-2.81
		c-6.31,0-10.12,2.43-10.12,10.57V77.95z"/>
</g>
</svg>
